<svg id="Capa_1" enable-background="new 0 0 512 512" height="512" viewBox="0 0 512 512" width="512" xmlns="http://www.w3.org/2000/svg"><g><path d="m256 64.357-111.849 10-38.574 84.867 150.423 10 10-52.434z" fill="#fff5f5"/><path d="m256 169.224 150.423-10-38.574-84.867-111.849-10z" fill="#ebe1dc"/><path d="m256 0h-111.849v74.357h111.849l10-37.179z" fill="#ffb655"/><path d="m256 0h111.849v74.357h-111.849z" fill="#ee8700"/><path d="m105.577 159.224v352.776h150.423l20-159-20-193.776z" fill="#ffb655"/><path d="m256 159.224h150.423v352.776h-150.423z" fill="#ee8700"/><g><path d="m243.159 230.962h-21.425v30h19.266v26.471c-35.267-4.578-62.437 13.711-62.437 62.749 0 42.767 34.451 89.202 77.437 77.437l10-71.619-10-121.887c-3.844-2.009-8.211-3.151-12.841-3.151z" fill="#ffe477"/><path d="m284.945 286.859 37.073-37.073-21.213-21.213-29.816 29.816c-.155-10.546-6.203-19.686-14.989-24.276v193.506c42.986 11.765 77.437-34.669 77.437-77.437 0-42.341-20.258-61.756-48.492-63.323z" fill="#ffb655"/></g></g></svg>