<svg id="Fill_Outline" height="512" viewBox="0 0 64 64" width="512" xmlns="http://www.w3.org/2000/svg" data-name="Fill Outline"><g id="Color"><path d="m37 9 5.617-1.4a11.264 11.264 0 0 0 4.3-2.13 11.252 11.252 0 0 1 7.03-2.47h4.053a18.121 18.121 0 0 0 -2.737 15.3l.737 2.7-21-7z" fill="#48cae4"/><path d="m54.061 4.576a3.675 3.675 0 0 0 -1.725 1.424 3.619 3.619 0 0 1 -3.752 1.52 18.122 18.122 0 0 0 -2.794-.335 11.066 11.066 0 0 0 -3.16.41h-.013l-5.617 1.405-2 5 21 7-.737-2.7a18.121 18.121 0 0 1 2.737-15.3z" fill="#00b4d8"/><path d="m36.922 9h-29.922a4 4 0 0 0 -4 3.994 22 22 0 0 0 22 22.006h12.447a7.46 7.46 0 0 1 7.536 6.761 7.27 7.27 0 0 1 -6.694 7.755l-.35.027a6.021 6.021 0 0 1 -5.415-2.655 8.976 8.976 0 0 0 -10.124-3.466 6.992 6.992 0 0 1 -5.261 12.731 9 9 0 0 0 13.918 2.608 6.245 6.245 0 0 1 4.314-1.645h.04c14.326.494 26.448-11.29 25.536-25.6a24.079 24.079 0 0 0 -24.025-22.516z" fill="#48cae4"/><path d="m59.363 41.319a5.391 5.391 0 0 1 -3.41-4.761v-.036a24.079 24.079 0 0 0 -24.031-22.522h-7.922a9.988 9.988 0 0 1 -8.651-5h-8.349a4 4 0 0 0 -4 3.994 22 22 0 0 0 22 22.006h12.447a7.46 7.46 0 0 1 7.536 6.761 7.27 7.27 0 0 1 -6.694 7.755l-.35.027a6.023 6.023 0 0 1 -5.415-2.655 8.976 8.976 0 0 0 -10.124-3.466 6.992 6.992 0 0 1 -5.261 12.731 9 9 0 0 0 13.918 2.608 6.245 6.245 0 0 1 4.314-1.645h.04a24.875 24.875 0 0 0 24.048-15.76z" fill="#00b4d8"/><circle cx="14" cy="15" fill="#0096c7" r="2"/><path d="m21.683 26.189a61.822 61.822 0 0 0 14.855 1.811h.415a13.047 13.047 0 0 1 13.047 13.047 8.592 8.592 0 0 1 -3 6.525 9.766 9.766 0 0 1 -9.06 1.971l.35-.027a7.27 7.27 0 0 0 6.694-7.755 7.46 7.46 0 0 0 -7.537-6.761h-12.447a21.933 21.933 0 0 1 -15.7-6.59 15.429 15.429 0 0 1 12.383-2.221z" fill="#ade8f4"/><path d="m36 28a21.018 21.018 0 0 0 2.434 13.181l.145.262a1 1 0 0 1 -1.268 1.405l-2.837-1.216a17.989 17.989 0 0 1 -10.474-12.632 4.18 4.18 0 0 1 4.1-5h4.778a3.219 3.219 0 0 1 3.122 4z" fill="#00b4d8"/><circle cx="13" cy="15" fill="#ade8f4" r="1"/></g><g id="Outline_copy" fill="#39519d" data-name="Outline copy"><path d="m26.029 36a19 19 0 0 0 8.051 6.551l2.838 1.216a2.019 2.019 0 0 0 .8.166 2.005 2.005 0 0 0 1.736-2.976l-.145-.261a20.141 20.141 0 0 1 -2.319-12.555 1 1 0 1 0 -1.98-.282 22.149 22.149 0 0 0 2.55 13.808l.145.261-2.838-1.215a17.027 17.027 0 0 1 -9.89-11.93 1 1 0 0 0 -1.954.434 18.9 18.9 0 0 0 1.777 4.773 20.824 20.824 0 0 1 -14.053-5.6 15.379 15.379 0 0 1 8.253-2.39 1 1 0 0 0 0-2 17.374 17.374 0 0 0 -9.685 2.927 20.832 20.832 0 0 1 -5.315-13.933 3 3 0 0 1 3-2.994h14a1 1 0 0 0 0-2h-14a5 5 0 0 0 -5 4.994 23 23 0 0 0 23 23.006z"/><path d="m61.948 31.457a24.9 24.9 0 0 0 -6-14.694 17.168 17.168 0 0 1 2.865-13.182 1 1 0 0 0 -.813-1.581h-4.053a12.3 12.3 0 0 0 -7.654 2.685 10.173 10.173 0 0 1 -3.918 1.94l-5.498 1.375h-11.877a1 1 0 0 0 0 2h11.92a22.9 22.9 0 0 1 12.35 42.3 1 1 0 0 0 1.08 1.684 25.009 25.009 0 0 0 11.598-22.527zm-19.403-22.813.314-.078a12.2 12.2 0 0 0 4.684-2.319 10.287 10.287 0 0 1 6.404-2.247h2.225a19.186 19.186 0 0 0 -2.5 10.436 25.106 25.106 0 0 0 -11.127-5.792z"/><path d="m45.888 54.114a23.728 23.728 0 0 1 -10.471 2.007 7.251 7.251 0 0 0 -5.017 1.888 7.96 7.96 0 0 1 -8.335 1.391 8.07 8.07 0 0 1 -2.921-2.09 8 8 0 0 0 5.487-13.293 8.067 8.067 0 0 1 3.547.59 7.905 7.905 0 0 1 3.522 2.852 6.965 6.965 0 0 0 6.3 3.08l.37-.022a8.228 8.228 0 0 0 2.119-15.975 1 1 0 0 0 -.7 1.875 6.229 6.229 0 0 1 -1.56 12.1l-.37.022a4.994 4.994 0 0 1 -4.516-2.217 9.9 9.9 0 0 0 -4.406-3.571 10.023 10.023 0 0 0 -6.842-.288 1 1 0 0 0 -.234 1.8 5.991 5.991 0 0 1 -4.506 10.91 1 1 0 0 0 -1.105 1.439 10.006 10.006 0 0 0 8.885 5.4 9.94 9.94 0 0 0 6.581-2.5 5.145 5.145 0 0 1 3.658-1.392 25.769 25.769 0 0 0 11.315-2.175 1 1 0 0 0 -.8-1.831z"/><path d="m23.445 23.832a1 1 0 0 0 1.387-.277 6.4 6.4 0 0 0 0-7.11 1 1 0 0 0 -1.664 1.11 4.4 4.4 0 0 1 0 4.89 1 1 0 0 0 .277 1.387z"/><path d="m27.445 23.832a1 1 0 0 0 1.387-.277 6.4 6.4 0 0 0 0-7.11 1 1 0 0 0 -1.664 1.11 4.4 4.4 0 0 1 0 4.89 1 1 0 0 0 .277 1.387z"/><path d="m31.445 23.832a1 1 0 0 0 1.387-.277 6.4 6.4 0 0 0 0-7.11 1 1 0 0 0 -1.664 1.11 4.4 4.4 0 0 1 0 4.89 1 1 0 0 0 .277 1.387z"/><path d="m11 15a3 3 0 1 0 3-3 3 3 0 0 0 -3 3zm4 0a1 1 0 1 1 -1-1 1 1 0 0 1 1 1z"/></g></svg>