<svg id="Fill_Outline" height="512" viewBox="0 0 64 64" width="512" xmlns="http://www.w3.org/2000/svg" data-name="Fill Outline"><g id="Color"><path d="m23 34h2a0 0 0 0 1 0 0v12a0 0 0 0 1 0 0h-10a0 0 0 0 1 0 0v-4a8 8 0 0 1 8-8z" fill="#ef5350"/><path d="m39 34h2a8 8 0 0 1 8 8v4a0 0 0 0 1 0 0h-10a0 0 0 0 1 0 0v-12a0 0 0 0 1 0 0z" fill="#ef5350"/><path d="m47 41h-4a4 4 0 0 1 -4-4v-9h-14v9a4 4 0 0 1 -4 4h-4a12 12 0 0 0 -12 12v8h54v-8a12 12 0 0 0 -12-12z" fill="#00b4d8"/><g fill="#0096c7"><path d="m49 61v-19.82a11.986 11.986 0 0 0 -2-.18h-4v20z"/><path d="m28.75 40.04a12.63 12.63 0 0 0 -3.98-1.71 3.913 3.913 0 0 0 .23-1.33v-9h14v9a3.435 3.435 0 0 0 .04.56c-.08.03-.16.07-.24.1a9.708 9.708 0 0 0 -2.77 1.78 5.984 5.984 0 0 1 -7.28.6z"/><path d="m59 56v5h-54v-8a12 12 0 0 1 12-12h4v2a13 13 0 0 0 13 13z"/></g><rect fill="#00b4d8" height="34" rx="13" width="26" x="19" y="3"/><path d="m39.224 29.581a7.976 7.976 0 0 0 -11.973-3.008 13.228 13.228 0 0 1 -1.527-1.63 5.559 5.559 0 0 0 2.8-1.162 5.564 5.564 0 0 1 6.834-.092 5.974 5.974 0 0 0 3.588 1.311h5.054a2.955 2.955 0 0 0 .958-.171c.018-.275.042-.549.042-.829v-8a12.926 12.926 0 0 0 -2.057-7h-11.443a5.727 5.727 0 0 1 -5.6-4.476 12.994 12.994 0 0 0 -6.9 11.476v8a13 13 0 0 0 25.738 2.608 13.011 13.011 0 0 1 -5.514 2.973z" fill="#0096c7"/><path d="m37 31h5v4h-5z" fill="#fcea42"/><path d="m41 31v1a1 1 0 0 1 -2 0v-1h-2v4h5v-4z" fill="#fdc741"/><path d="m22 30h6v6h-6z" fill="#fcea42"/><path d="m25.812 30a5.95 5.95 0 0 0 -.812 3 6.057 6.057 0 0 0 .065.836 2.989 2.989 0 0 1 -2.065-2.836v-1h-1v6h6v-6z" fill="#fdc741"/><circle cx="32" cy="33" fill="#ade8f4" r="6"/><circle cx="32" cy="33" fill="#00b4d8" r="2"/><path d="m15 29a2 2 0 0 1 2-2h2.362a13.015 13.015 0 0 1 -.362-3v-1h-2a6 6 0 0 0 0 12h5v-4h-5a2 2 0 0 1 -2-2z" fill="#fdc741"/><path d="m42 30h4v6h-4z" fill="#fffa48"/><path d="m15 29a2 2 0 0 1 2-2h2.362a13.015 13.015 0 0 1 -.362-3v-1h-2a5.974 5.974 0 0 0 -1.979.341 4.428 4.428 0 0 1 -.851 2.1 5.988 5.988 0 0 0 -.342 6.594 4.1 4.1 0 0 1 .572 2.365 5.957 5.957 0 0 0 2.6.6h5v-4h-5a2 2 0 0 1 -2-2z" fill="#efad1b"/><path d="m34 37a5.992 5.992 0 0 1 -5.119-9.119 6 6 0 1 0 8.238 8.238 5.968 5.968 0 0 1 -3.119.881z" fill="#48cae4"/><path d="m46 35v1h-4v-6h2v3a2.006 2.006 0 0 0 2 2z" fill="#fcea42"/><path d="m51 41.69v19.31h-6v-20h2a11.8 11.8 0 0 1 4 .69z" fill="#fffa48"/><path d="m19 41v20h-6v-19.31a11.8 11.8 0 0 1 4-.69z" fill="#fffa48"/><path d="m44 23h-5.048a5.566 5.566 0 0 1 -3.476-1.219 5.564 5.564 0 0 0 -6.952 0 5.563 5.563 0 0 1 -3.476 1.219h-5.048a3 3 0 0 1 -3-3v-6a3 3 0 0 1 3-3h24a3 3 0 0 1 3 3v6a3 3 0 0 1 -3 3z" fill="#48cae4"/><path d="m44 20h-5.048a5.566 5.566 0 0 1 -3.476-1.219 5.564 5.564 0 0 0 -6.952 0 5.566 5.566 0 0 1 -3.476 1.219 8.044 8.044 0 0 1 -7.937-6.767 2.985 2.985 0 0 0 -.111.767v6a3 3 0 0 0 3 3h5.048a5.566 5.566 0 0 0 3.476-1.219 5.564 5.564 0 0 1 6.952 0 5.566 5.566 0 0 0 3.476 1.219h5.048a3 3 0 0 0 3-3v-3a3 3 0 0 1 -3 3z" fill="#00b4d8"/><path d="m34.94 21.41a5.483 5.483 0 0 0 -2.94-.85 5.591 5.591 0 0 0 -3.48 1.22 5.451 5.451 0 0 1 -1.44.83l-9.82-9.82a2.974 2.974 0 0 1 2.74-1.79h4.53z" fill="#ade8f4"/><path d="m46.96 20.43a2.97 2.97 0 0 1 -2.53 2.53l-11.96-11.96h5.06z" fill="#ade8f4"/><path d="m34.94 21.41a5.483 5.483 0 0 0 -2.94-.85 5.591 5.591 0 0 0 -3.48 1.22 5.451 5.451 0 0 1 -1.44.83l-2.63-2.63c.2.01.4.02.6.02a5.538 5.538 0 0 0 3.47-1.22 5.523 5.523 0 0 1 2.64-1.15z" fill="#48cae4"/><path d="m46.96 20.43a2.97 2.97 0 0 1 -2.53 2.53l-2.96-2.96h2.53a2.976 2.976 0 0 0 1.87-.66z" fill="#48cae4"/><path d="m51 56v5h-6v-20h2v11a4 4 0 0 0 4 4z" fill="#fcea42"/><path d="m19 56v5h-6v-19.31a11.082 11.082 0 0 1 2-.52v10.83a4 4 0 0 0 4 4z" fill="#fcea42"/><path d="m30 40h2v19h-2z" fill="#0096c7"/><path d="m19 46h26v4h-26z" fill="#ade8f4"/><g fill="#48cae4"><path d="m43 46h2v4h-2z"/><path d="m21.362 46h-2.362v4h4.057a12.9 12.9 0 0 1 -1.695-4z"/><path d="m30 46h2v4h-2z"/></g></g><g id="Outline_copy" fill="#39519d" data-name="Outline copy"><path d="m6.376 47.322a1 1 0 0 0 -1.314.522 12.937 12.937 0 0 0 -1.062 5.156v8a1 1 0 0 0 2 0v-8a10.947 10.947 0 0 1 .9-4.363 1 1 0 0 0 -.524-1.315z"/><path d="m49.838 40.322a8.9 8.9 0 0 0 -2.838-5.01v-5.312a1 1 0 0 0 -1-1h-.931a13.811 13.811 0 0 0 .931-5v-.556a3.987 3.987 0 0 0 2-3.444v-6a4 4 0 0 0 -3.337-3.933 14.017 14.017 0 0 0 -4.145-5.167 1 1 0 1 0 -1.218 1.584 12.007 12.007 0 0 1 3.078 3.516h-20.761a12 12 0 0 1 10.383-6 11.788 11.788 0 0 1 4.058.709 1 1 0 1 0 .685-1.879 13.788 13.788 0 0 0 -4.743-.83 14 14 0 0 0 -12.672 8.068 4 4 0 0 0 -3.328 3.932v2a1 1 0 0 0 2 0v-1.056l5.455 5.456a1 1 0 1 0 1.414-1.414l-6.335-6.336a1.989 1.989 0 0 1 1.466-.65h4.116l7.577 7.577a6.528 6.528 0 0 0 -3.793 1.423 4.576 4.576 0 0 1 -2.851 1h-5.049a2 2 0 0 1 -2-2 1 1 0 0 0 -2 0 3.959 3.959 0 0 0 .568 2.022 6.994 6.994 0 0 0 -.227 13.945 8.961 8.961 0 0 0 -2.169 4.353 13.02 13.02 0 0 0 -6.738 3.873 1 1 0 0 0 1.472 1.354 10.964 10.964 0 0 1 3.094-2.329v5.782a3 3 0 0 0 -3 3v2a3 3 0 0 0 3 3v4a1 1 0 0 0 2 0v-4h4v4a1 1 0 0 0 2 0v-4a3 3 0 0 0 3-3v-2a2.966 2.966 0 0 0 -.184-1h8.184v10a1 1 0 0 0 2 0v-14h11v2h-8a1 1 0 0 0 0 2h5.184a2.966 2.966 0 0 0 -.184 1v2a3 3 0 0 0 3 3v4a1 1 0 0 0 2 0v-4h4v4a1 1 0 0 0 2 0v-4a3 3 0 0 0 3-3v-2a3 3 0 0 0 -3-3v-3.31a1 1 0 0 0 -2 0v9.31h-4v-13h1a11.013 11.013 0 0 1 11 11v8a1 1 0 0 0 2 0v-8a13.016 13.016 0 0 0 -10.162-12.678zm2.162 10.678a1 1 0 0 1 1 1v2a1 1 0 0 1 -1 1zm-9-20h2v4h-2zm3-17v4.056l-6.056-6.056h4.056a2 2 0 0 1 2 2zm-13.944-2 8.119 8.118a1 1 0 1 0 1.414-1.418l-6.7-6.7h2.231l8.739 8.739a2 2 0 0 1 -1.859 1.261h-5.048a4.573 4.573 0 0 1 -2.852-1c-.152-.121-.316-.211-.475-.317l-8.681-8.683zm-7.008 12a6.584 6.584 0 0 0 4.1-1.438 4.537 4.537 0 0 1 5.7 0 6.593 6.593 0 0 0 4.104 1.438h5.048a11.82 11.82 0 0 1 -1.12 5h-.88a1 1 0 0 0 -1 1h-2.685a6.984 6.984 0 0 0 -12.051-1h-4.264a.984.984 0 0 0 -.739.341 11.961 11.961 0 0 1 -1.261-5.341zm15.952 10h-2.08a6.29 6.29 0 0 0 0-2h2.08zm-18 1v-4h2.3a6.927 6.927 0 0 0 0 4zm13.9-3h-2.084a3 3 0 0 0 -1.816-1.816v-2.084a5.016 5.016 0 0 1 3.9 3.9zm-4.9 2a1 1 0 1 1 1-1 1 1 0 0 1 -1 1zm-1-3.816a3 3 0 0 0 -1.816 1.816h-2.084a5.016 5.016 0 0 1 3.9-3.9zm-1.816 3.816a3 3 0 0 0 1.816 1.816v2.084a5.016 5.016 0 0 1 -3.9-3.9zm3.816 1.816a3 3 0 0 0 1.816-1.816h2.084a5.016 5.016 0 0 1 -3.9 3.9zm-13.642-5.816h-2.358a1 1 0 0 1 0-2h1.586a13.9 13.9 0 0 0 .772 2zm-7.358-1a5.006 5.006 0 0 1 5-5h1a14.014 14.014 0 0 0 .144 2h-1.144a3 3 0 0 0 0 6h4v2h-4a5.006 5.006 0 0 1 -5-5zm7.418 7h1.582a1 1 0 0 0 1 1h2a3 3 0 0 1 -3 3h-4c-.237 0-.471.024-.707.037a7 7 0 0 1 3.125-4.037zm-8.418 18v-2a1 1 0 0 1 1-1v4a1 1 0 0 1 -1-1zm3 1v-12.568a10.949 10.949 0 0 1 3-.432h1v13zm7-3v2a1 1 0 0 1 -1 1v-4a1 1 0 0 1 1 1zm10-3h-11v-7h1a5.006 5.006 0 0 0 5-5h.264a7 7 0 0 0 4.736 2.92v5.08h-8a1 1 0 0 0 0 2h8zm12 5v-2a1 1 0 0 1 1-1v4a1 1 0 0 1 -1-1zm1-9h-11v-5.08a7.005 7.005 0 0 0 5-3.333v.413a5.006 5.006 0 0 0 5 5h1zm-1-5a3 3 0 0 1 -3-3v-1h1a1 1 0 0 0 1 1h3.893a6.916 6.916 0 0 1 1.823 3.036c-.239-.013-.474-.036-.716-.036z"/></g></svg>