<svg id="Layer_1" enable-background="new 0 0 256 256" height="512" viewBox="0 0 256 256" width="512" xmlns="http://www.w3.org/2000/svg"><g><g><g><path d="m207.996 19.947c-20.002 0-20.002-12-40.004-12-19.999 0-19.999 12-39.998 12-20 0-20-12-40-12-19.999 0-19.999 12-39.998 12s-19.999-12-39.997-12v234.106c0 3.314 2.686 6 6 6h228c3.314 0 6-2.686 6-6v-160.106-30.447-43.553c-20.001 0-20.001 12-40.003 12z" fill="#e0ebfc"/></g></g><g><g><path d="m207.996 59.947c-20.002 0-20.002-12-40.004-12-19.999 0-19.999 12-39.998 12-20 0-20-12-40-12-19.999 0-19.999 12-39.998 12s-19.999-12-39.997-12c.001 18.426.001 22.539.001 43.553v130.553 20c0 3.314 2.686 6 6 6h228c3.314 0 6-2.686 6-6v-20c0-11.74 0-168.468 0-174.106-20.002 0-20.002 12-40.004 12z" fill="#a4c9ff"/></g></g><g><g><path d="m159.915 194.373h-6.628v-8.744c-11.659 6.068-25.648 6.071-37.315-.011v8.755h-6.618c-11.584 0-20.975 9.392-20.975 20.976v32.704h92.512c0-7.144 0-26.474 0-32.704-.001-11.584-9.392-20.976-20.976-20.976z" fill="#f9cfcf"/></g></g><g><g><path d="m180.89 250.053h-92.512c-1.104 0-2-.896-2-2v-32.704c0-12.669 10.307-22.976 22.976-22.976h4.617v-6.755c0-.699.365-1.348.963-1.71.598-.363 1.339-.387 1.962-.063 11.102 5.786 24.361 5.792 35.467.01.62-.322 1.364-.299 1.961.064.598.362.963 1.011.963 1.71v6.744h4.628c12.669 0 22.976 10.307 22.976 22.976v32.704c-.001 1.104-.897 2-2.001 2zm-90.512-4h88.512v-30.704c0-10.463-8.513-18.976-18.976-18.976h-6.628c-1.104 0-2-.896-2-2v-5.588c-10.631 4.539-22.687 4.536-33.315-.009v5.597c0 1.104-.896 2-2 2h-6.617c-10.463 0-18.976 8.513-18.976 18.976z" fill="#3762cc"/></g></g><g><g><path d="m173.633 198.664-14.717-8.164h.001v-4.213c26.424-9.348 45.338-34.544 45.338-64.139 0-34.887-26.742-68.029-71.212-68.029-37.572 0-68.029 30.458-68.029 68.029 0 27.485 16.607 53.874 45.395 63.84v4.512l-14.717 8.164c-7.846 4.353-12.714 12.619-12.714 21.592 0 3.062-.436 5.299 1.868 5.941 34.394 9.588 32.944 9.413 36.094 9.413 29.642 0 28.988.219 32.017-.626l31.521-8.787c2.316-.645 1.868-2.913 1.868-5.941 0-8.973-4.867-17.24-12.713-21.592z" fill="#e0ebfc"/></g></g><g><g><path d="m158.917 190.5v-4.214c-15.406 5.45-33.173 5.011-48.509-.299v4.512l-7.638 4.237 5.909 27.685c1.037 4.858 6.159 5.448 5.171 5.225 5.053 1.142 10.217 1.719 15.397 1.719 20.525 0 29.915-.052 31.385-6.94l5.911-27.694z" fill="#4671c6"/></g></g><g><g><path d="m138.627 45.227-8-.008.006-5.615c.009-9.613 7.837-17.434 17.449-17.434 5.21 0 9.449-4.239 9.449-9.449v-4.721h8v4.721c0 9.621-7.828 17.449-17.449 17.449-5.205 0-9.444 4.235-9.449 9.441z" fill="#f9a7a7"/></g></g><g><g><path d="m135.965 190.177c-37.195 0-59.562-27.72-59.562-56.9 0-31.402 25.451-56.9 56.9-56.9 37.195 0 59.562 27.72 59.562 56.9 0 31.402-25.452 56.9-56.9 56.9z" fill="#f9a7a7"/></g></g><g><g><path d="m86.459 117.88c-1.398 7.389-.408 12.012.624 19.579 2.008-1.421 4.459-2.267 7.114-2.267.086 0 .169.011.254.013 0-4.141-.109-6.63.641-10.795-3.577-1.948-6.412-4.246-8.633-6.53z" fill="#4671c6"/></g></g><g><g><path d="m80.891 111.094c1.743 2.444 3.589 4.647 4.878 6.059h.001c25.884 28.166 88.592 3.518 77.983-24.808l.01.002c-1.538-4.478-4.185-8.003-7.351-10.788l.015.002c-.837-.722-1.71-1.389-2.597-2.031-6.209-2.02-13.064-3.153-20.529-3.153-23.567 0-43.767 14.322-52.41 34.717z" fill="#4671c6"/></g></g><g><g><path d="m133.042 54.118c4.77 0 9.322.402 13.672 1.126.012-2.44-.021-3.031-.574-4.02-1.911-3.416-2.767-6.002-5.953-6.002-11.307 0-13.291-.672-14.934 2.265-2.546 4.55-2.706 4.187-2.677 7.433 3.412-.526 6.907-.802 10.466-.802z" fill="#4671c6"/></g></g><g><g><path d="m146.715 56.744c-.082 0-.164-.007-.246-.021-7.761-1.29-15.837-1.526-23.664-.32-.431.067-.868-.058-1.2-.34-.332-.281-.524-.694-.528-1.13-.026-3.023.155-3.441 1.813-6.323.295-.514.644-1.119 1.056-1.854 1.783-3.188 4.112-3.156 11.022-3.073 1.475.019 3.197.04 5.22.04 3.634 0 5.034 2.622 6.518 5.397.233.438.479.896.744 1.372.746 1.331.778 2.203.766 4.759-.002.44-.197.856-.533 1.14-.274.23-.617.353-.968.353zm-13.673-4.126c4.065 0 8.147.293 12.157.873-.035-.867-.133-1.116-.367-1.533-.276-.494-.53-.97-.773-1.424-1.538-2.881-2.178-3.812-3.871-3.812-2.036 0-3.771-.021-5.258-.04-6.895-.083-7.522.028-8.366 1.538-.419.748-.773 1.364-1.073 1.886-.956 1.66-1.274 2.215-1.375 3.082 2.957-.378 5.952-.57 8.926-.57z" fill="#3762cc"/></g></g><g><g><path d="m174.839 135.206-6.721-4.839c-8.521-6.134-9.139-14.661-9.735-16.766-13.87 15.017-44.273 21.163-63.294 10.807-.746 4.147-.638 6.678-.638 10.797-.085-.001-.168-.013-.254-.013-6.772 0-12.263 5.441-12.263 12.152 0 7.176 6.265 12.853 13.578 12.08 4.148 17.622 20.087 30.752 39.132 30.752s34.985-13.131 39.132-30.752c.433.046.871.072 1.316.072 6.772 0 12.263-5.441 12.263-12.152.001-6.912-5.786-12.317-12.516-12.138z" fill="#f9cfcf"/></g></g><g><g><path d="m180.862 116.876 4.096 1.777c-5.849-16.458-15.264-20.463-15.264-20.463l.002.004c-1.747-.912-3.361-1.173-4.838-1.048.543 5.914-1.963 11.569-6.475 16.455.597 2.105 1.215 10.631 9.735 16.766l6.721 4.839c2.039-.054 3.988.411 5.72 1.269.935-6.807 1.967-11.881.3-19.602z" fill="#4671c6"/></g></g><g><g><path d="m114.762 157.073c-2.676 0-4.852-2.176-4.852-4.852v-8.087c0-2.675 2.177-4.852 4.852-4.852s4.852 2.177 4.852 4.852v8.087c0 2.676-2.177 4.852-4.852 4.852z" fill="#3762cc"/></g></g><g><g><path d="m154.519 157.073c-2.676 0-4.852-2.176-4.852-4.852v-8.087c0-2.675 2.177-4.852 4.852-4.852s4.852 2.177 4.852 4.852v8.087c0 2.676-2.177 4.852-4.852 4.852z" fill="#3762cc"/></g></g><g><g><path d="m134.646 171.359c-5.477 0-9.933-3.644-9.933-8.123 0-1.104.896-2 2-2s2 .896 2 2c0 2.235 2.717 4.123 5.933 4.123 3.215 0 5.932-1.888 5.932-4.123 0-1.104.896-2 2-2s2 .896 2 2c-.001 4.48-4.456 8.123-9.932 8.123z" fill="#3762cc"/></g></g><g><g><path d="m162.29 89.756c3.625 1.911 6.958 4.299 9.905 7.097 3.1 2.946-1.353 7.646-4.46 4.696-2.516-2.39-5.364-4.431-8.464-6.064-3.784-1.994-.77-7.726 3.019-5.729z" fill="#e0ebfc"/></g></g><g><g><path d="m180.941 149.968c1.824-3.46 3.175-7.131 4.034-10.916l.006.002c.284-1.158.649-3.602.812-4.789l-.013-.004c.572-5.02.15-10.072-.513-13.611l.004.001c.067-1.095-1.828-6.541-2.207-7.573l-.001.001c-.164-.407-.351-.856-.575-1.381-1.679-3.936-7.635-1.401-5.958 2.539 4.315 10.102 4.287 22.077-1.318 32.712-.834 1.582-.227 3.54 1.355 4.374s3.54.227 4.374-1.355z" fill="#e0ebfc"/></g></g><g><g><circle cx="212.19" cy="170.102" fill="#e0ebfc" r="8.642"/></g></g><g><g><circle cx="228.048" cy="135.634" fill="#e0ebfc" r="10.167"/></g></g><g><g><circle cx="212.19" cy="102.102" fill="#e0ebfc" r="8.642"/></g></g><g><g><circle cx="54" cy="152.73" fill="#e0ebfc" r="8.642"/></g></g><g><g><circle cx="41.5" cy="186.73" fill="#e0ebfc" r="10.167"/></g></g><g><g><circle cx="54" cy="220.73" fill="#e0ebfc" r="8.642"/></g></g><g><g><path d="m141.367 200.89h-13.41c-5.379 0-5.387-8.089 0-8.089h13.41c5.379 0 5.387 8.089 0 8.089z" fill="#6bdddd"/></g></g><g><g><path d="m135.965 192.177c-39.986 0-61.562-30.347-61.562-58.899 0-32.478 26.423-58.9 58.9-58.9 39.986 0 61.562 30.347 61.562 58.9 0 32.477-26.423 58.899-58.9 58.899zm-2.662-113.8c-30.272 0-54.9 24.628-54.9 54.9 0 26.614 20.174 54.899 57.562 54.899 30.272 0 54.9-24.628 54.9-54.899 0-26.614-20.174-54.9-57.562-54.9z" fill="#3762cc"/></g></g><g><g><path d="m142.01 237.635c-1.755 0-3.843-.004-6.343-.009-3.827-.008-8.638-.017-14.728-.017h-.165c-2.586-.02-2.594.004-19.34-4.694-4.408-1.237-9.997-2.805-17.126-4.792-3.469-.966-3.401-4.115-3.348-6.646.008-.39.017-.798.017-1.222 0-9.695 5.267-18.64 13.744-23.341l13.687-7.593v-1.925c-13.612-5.013-25.049-13.851-33.142-25.628-8.017-11.666-12.254-25.367-12.254-39.622 0-38.614 31.415-70.029 70.029-70.029 47.554 0 73.213 36.081 73.213 70.029 0 29.142-18.16 55.299-45.338 65.538v1.637l13.687 7.593h-.001c8.478 4.702 13.743 13.646 13.743 23.341 0 .426.01.836.019 1.228.053 2.393.127 5.671-3.35 6.64l-31.521 8.787c-2.23.622-2.598.725-11.483.725zm-21.071-4.026c6.093 0 10.906.009 14.735.017 14.603.027 14.604.028 16.745-.569l31.521-8.787c.321-.089.481-.134.425-2.697-.01-.42-.02-.859-.02-1.316 0-8.242-4.477-15.846-11.683-19.843l-14.717-8.164c-.636-.353-1.03-1.022-1.03-1.749l.001-4.213c0-.848.534-1.603 1.333-1.886 26.32-9.312 44.005-34.33 44.005-62.254 0-32.01-24.258-66.029-69.213-66.029-36.408 0-66.029 29.621-66.029 66.029 0 28.369 17.291 52.687 44.05 61.951.806.278 1.346 1.037 1.346 1.89v4.512c0 .727-.395 1.396-1.03 1.749l-14.717 8.164c-7.207 3.997-11.684 11.6-11.684 19.843 0 .454-.009.89-.018 1.307-.019.879-.05 2.35.174 2.604 0 0 .056.05.248.104 7.133 1.988 12.724 3.557 17.134 4.794 16.206 4.548 16.232 4.563 18.255 4.546h.169z" fill="#3762cc"/></g></g><g><g><path d="m242 250.053h-228c-4.411 0-8-3.589-8-8v-234.106c0-1.104.896-2 2-2 10.553 0 15.878 3.195 21.027 6.285 4.897 2.938 9.524 5.715 18.97 5.715s14.072-2.776 18.97-5.715c5.149-3.09 10.475-6.285 21.027-6.285 10.554 0 15.879 3.195 21.029 6.285 4.898 2.938 9.524 5.715 18.971 5.715 9.445 0 14.072-2.776 18.97-5.715 5.149-3.09 10.475-6.285 21.028-6.285 10.555 0 15.881 3.195 21.031 6.285 4.898 2.938 9.525 5.715 18.973 5.715s14.074-2.776 18.973-5.715c5.15-3.09 10.477-6.285 21.031-6.285 1.104 0 2 .896 2 2v234.105c0 4.412-3.589 8.001-8 8.001zm-232-240.062v232.062c0 2.206 1.794 4 4 4h228c2.206 0 4-1.794 4-4v-232.062c-8.126.363-12.433 2.947-16.973 5.671-5.15 3.09-10.477 6.285-21.031 6.285s-15.881-3.195-21.031-6.285c-4.898-2.938-9.525-5.715-18.973-5.715-9.445 0-14.072 2.776-18.97 5.715-5.149 3.09-10.475 6.285-21.028 6.285s-15.879-3.195-21.029-6.285c-4.898-2.938-9.524-5.715-18.971-5.715-9.445 0-14.071 2.776-18.969 5.715-5.149 3.09-10.475 6.285-21.028 6.285s-15.879-3.195-21.028-6.285c-4.539-2.724-8.845-5.308-16.969-5.671z" fill="#3762cc"/></g></g></g></svg>