<?xml version="1.0" encoding="iso-8859-1"?>
<!-- Generator: Adobe Illustrator 19.0.0, SVG Export Plug-In . SVG Version: 6.00 Build 0)  -->
<svg version="1.1" id="Capa_1" xmlns="http://www.w3.org/2000/svg" xmlns:xlink="http://www.w3.org/1999/xlink" x="0px" y="0px"
	 viewBox="0 0 512 512" style="enable-background:new 0 0 512 512;" xml:space="preserve">
<path style="fill:#91CC04;" d="M386.612,242.559c-9.562,9.561-25.064,9.561-34.625,0c-9.562-9.562-9.562-25.063,0-34.625"/>
<g>
	<path style="fill:#FF6243;" d="M276.898,160.914L276.898,160.914c-13.85,0-25.078-11.227-25.078-25.078v-25.078h50.155v25.078
		C301.975,149.687,290.748,160.914,276.898,160.914z"/>
	<path style="fill:#FF6243;" d="M477.518,160.914L477.518,160.914c-13.85,0-25.078-11.227-25.078-25.078v-25.078h50.155v25.078
		C502.596,149.687,491.368,160.914,477.518,160.914z"/>
</g>
<path style="fill:#FFFFFF;" d="M427.363,160.914L427.363,160.914c-13.85,0-25.078-11.227-25.078-25.078v-25.078h50.155v25.078
	C452.441,149.687,441.213,160.914,427.363,160.914z"/>
<path style="fill:#FF6243;" d="M377.208,160.914L377.208,160.914c-13.85,0-25.078-11.227-25.078-25.078v-25.078h50.155v25.078
	C402.286,149.687,391.058,160.914,377.208,160.914z"/>
<path style="fill:#FFFFFF;" d="M327.053,160.914L327.053,160.914c-13.85,0-25.078-11.227-25.078-25.078v-25.078h50.155v25.078
	C352.131,149.687,340.903,160.914,327.053,160.914z"/>
<circle style="fill:#57565C;" cx="75.755" cy="359.445" r="41.796"/>
<circle style="fill:#FFFFFF;" cx="75.755" cy="359.445" r="15.673"/>
<g>
	<path style="fill:#FF6243;" d="M7.837,354.22c0-37.51,30.409-67.918,67.918-67.918l0,0c37.51,0,67.918,30.409,67.918,67.918H7.837z
		"/>
	<path style="fill:#FF6243;" d="M250.253,369.894H119.641l-41.796-88.816v-10.449l36.149-76.817c3.447-7.325,10.814-12,18.908-12
		h117.35V369.894z"/>
</g>
<path style="fill:#5AAAE7;" d="M250.253,181.812v94.041H77.845v-5.224l36.153-76.821c3.438-7.325,10.804-11.995,18.902-11.995
	L250.253,181.812L250.253,181.812z"/>
<rect x="218.906" y="202.71" style="fill:#D80027;" width="31.347" height="73.143"/>
<path style="fill:#FFFFFF;" d="M250.253,181.812v20.898H109.808l4.19-8.903c3.438-7.325,10.804-11.995,18.902-11.995H250.253z"/>
<rect x="292.049" y="333.322" style="fill:#FFDA44;" width="196.441" height="36.571"/>
<rect x="467.069" y="333.322" style="fill:#EEBF00;" width="21.42" height="36.571"/>
<circle style="fill:#57565C;" cx="410.122" cy="359.445" r="41.796"/>
<circle style="fill:#FFFFFF;" cx="410.122" cy="359.445" r="15.673"/>
<rect x="250.253" y="333.322" style="fill:#CC7400;" width="41.796" height="20.898"/>
<rect x="250.253" y="312.424" style="fill:#00CCB3;" width="253.91" height="20.898"/>
<rect x="482.743" y="312.424" style="fill:#008877;" width="21.42" height="20.898"/>
<g>
	<rect x="196.441" y="333.322" style="fill:#FFFFFF;" width="32.914" height="15.673"/>
	<rect x="165.094" y="333.322" style="fill:#FFFFFF;" width="15.673" height="15.673"/>
</g>
<path style="fill:#91CC04;" d="M425.194,270.629c9.562,9.562,9.562,25.064,0,34.625c-9.562,9.562-25.064,9.562-34.625,0"/>
<g>
	<circle style="fill:#FF6243;" cx="420.571" cy="236.669" r="13.061"/>
	<circle style="fill:#FF6243;" cx="446.694" cy="236.669" r="13.061"/>
	<circle style="fill:#FF6243;" cx="433.633" cy="210.547" r="13.061"/>
	<circle style="fill:#FF6243;" cx="318.171" cy="294.139" r="18.286"/>
</g>
<g>
	<circle style="fill:#FFDA44;" cx="349.518" cy="294.139" r="18.286"/>
	<circle style="fill:#FFDA44;" cx="326.531" cy="231.445" r="18.286"/>
</g>
<rect x="213.682" y="299.363" width="15.673" height="15.673"/>
<path d="M512,304.588h-22.465V166.47c12.221-4.811,20.898-16.724,20.898-30.633v-32.914H243.984v32.914
	c0,13.909,8.677,25.822,20.898,30.633v138.118h-6.792V173.976H132.903c-11.077,0-21.282,6.476-25.999,16.5l-36.895,78.401v9.829
	C30.914,281.655,0,314.385,0,354.22v7.837h26.191c1.364,26.158,23.072,47.02,49.564,47.02c20.707,0,38.798-12.847,46.14-31.347
	H258.09v-15.673h26.122v15.673h79.783c7.298,18.341,25.217,31.347,46.127,31.347s38.829-13.006,46.127-31.347h40.077v-36.571H512
	V304.588z M415.347,236.669c0-2.881,2.344-5.224,5.224-5.224s5.224,2.344,5.224,5.224c0,2.881-2.344,5.224-5.224,5.224
	S415.347,239.55,415.347,236.669z M433.633,215.771c-2.881,0-5.224-2.344-5.224-5.224c0-2.881,2.344-5.225,5.224-5.225
	s5.224,2.344,5.224,5.225C438.857,213.428,436.513,215.771,433.633,215.771z M441.469,236.669c0-2.881,2.344-5.224,5.224-5.224
	s5.224,2.344,5.224,5.224c0,2.881-2.344,5.224-5.224,5.224S441.469,239.55,441.469,236.669z M453.521,216.94
	c0.65-2.017,1.009-4.163,1.009-6.393c0-11.523-9.375-20.898-20.898-20.898c-11.523,0-20.898,9.375-20.898,20.898
	c0,2.23,0.359,4.376,1.009,6.393c-8.175,2.839-14.071,10.599-14.071,19.73c0,1.807,0.255,3.552,0.688,5.224h-3.331l-45.042-45.041
	l-5.541,5.541c-2.193,2.193-4.026,4.65-5.483,7.292c-4.138-2.753-9.1-4.363-14.433-4.363c-14.404,0-26.122,11.719-26.122,26.122
	c0,3.714,0.784,7.247,2.188,10.449h-22.041v-73.351c8.552-0.95,16.123-5.19,21.42-11.423c6.043,7.108,15.039,11.631,25.078,11.631
	s19.035-4.522,25.078-11.631c6.043,7.108,15.039,11.631,25.078,11.631s19.035-4.522,25.078-11.631
	c6.043,7.108,15.039,11.631,25.078,11.631s19.035-4.522,25.078-11.631c5.298,6.233,12.868,10.473,21.42,11.423v73.351h-6.957
	c0.433-1.673,0.688-3.418,0.688-5.224C467.592,227.539,461.698,219.779,453.521,216.94z M316.082,231.445
	c0-5.762,4.687-10.449,10.449-10.449c5.762,0,10.449,4.687,10.449,10.449c0,5.762-4.687,10.449-10.449,10.449
	C320.769,241.894,316.082,237.206,316.082,231.445z M357.529,237.017c-4.488-4.488-5.873-10.922-4.153-16.612l20.775,20.775
	c-1.552,0.47-3.183,0.715-4.85,0.715C364.853,241.894,360.673,240.162,357.529,237.017z M460.278,118.596h34.482v17.241
	c0,9.506-7.734,17.241-17.241,17.241s-17.241-7.734-17.241-17.241V118.596z M410.122,118.596h34.482v17.241
	c0,9.506-7.734,17.241-17.241,17.241s-17.241-7.734-17.241-17.241V118.596z M359.967,118.596h34.482v17.241
	c0,9.506-7.734,17.241-17.241,17.241c-9.507,0-17.241-7.734-17.241-17.241V118.596z M309.812,118.596h34.482v17.241
	c0,9.506-7.734,17.241-17.241,17.241s-17.241-7.734-17.241-17.241V118.596z M259.657,135.837v-17.241h34.482v17.241
	c0,9.506-7.734,17.241-17.241,17.241C267.391,153.078,259.657,145.343,259.657,135.837z M280.555,257.567h193.306v47.02h-38.263
	c3-4.976,4.604-10.687,4.604-16.647c0-8.633-3.361-16.749-9.466-22.854l-5.541-5.541l-45.043,45.042h-6.699
	c1.403-3.203,2.188-6.735,2.188-10.449c0-14.404-11.719-26.122-26.122-26.122c-5.88,0-11.311,1.954-15.681,5.244
	c-4.463-3.342-9.958-5.244-15.666-5.244c-14.404,0-26.122,11.719-26.122,26.122c0,3.714,0.784,7.246,2.188,10.449h-13.682V257.567z
	 M403.031,303.873l20.775-20.775c1.719,5.689,0.334,12.124-4.155,16.613c-3.144,3.144-7.324,4.875-11.771,4.875
	C406.213,304.588,404.583,304.345,403.031,303.873z M307.722,294.139c0-5.762,4.687-10.449,10.449-10.449
	c2.438,0,4.712,0.836,6.531,2.306c-0.843,2.564-1.306,5.3-1.306,8.143s0.463,5.579,1.306,8.143
	c-1.819,1.469-4.093,2.306-6.531,2.306C312.41,304.588,307.722,299.9,307.722,294.139z M339.069,294.139
	c0-5.762,4.687-10.449,10.449-10.449c5.762,0,10.449,4.687,10.449,10.449s-4.687,10.449-10.449,10.449
	C343.757,304.588,339.069,299.9,339.069,294.139z M87.735,283.69h24.516l27.659,78.367h-15.297L87.735,283.69z M211.069,210.547
	v57.469h-82.196l20.283-57.469H211.069z M226.743,210.547h15.673v57.469h-15.673V210.547z M132.903,189.649h109.514v5.224H122.462
	C124.901,191.638,128.767,189.649,132.903,189.649z M114.78,210.547h17.755l-20.283,57.469H87.735L114.78,210.547z M75.335,294.148
	l24.581,52.236H16.182C20.015,317.079,45.05,294.358,75.335,294.148z M83.135,362.057c-1.079,3.039-3.975,5.224-7.38,5.224
	c-3.405,0-6.301-2.186-7.38-5.224H83.135z M75.755,393.404c-17.845,0-32.509-13.839-33.848-31.347h10.487
	c1.304,11.738,11.281,20.898,23.362,20.898s22.058-9.16,23.362-20.898h8.175l1.803,3.833
	C106.061,381.718,92.097,393.404,75.755,393.404z M156.532,362.057l-27.658-78.367h113.543v78.367H156.532z M258.09,346.384v-5.224
	h26.122v5.224H258.09z M299.886,362.057v-20.898h64.11c-2.295,5.79-3.506,12.003-3.506,18.286c0,0.877,0.024,1.747,0.069,2.612
	H299.886z M410.122,393.404c-18.725,0-33.959-15.234-33.959-33.959c0-6.585,1.843-12.837,5.349-18.286h13.856
	c-5.335,4.313-8.756,10.907-8.756,18.286c0,12.963,10.546,23.51,23.51,23.51c12.964,0,23.51-10.547,23.51-23.51
	c0-7.379-3.42-13.972-8.756-18.286h13.856c3.506,5.449,5.349,11.701,5.349,18.286C444.082,378.171,428.847,393.404,410.122,393.404z
	 M417.959,359.445c0,4.322-3.515,7.837-7.837,7.837s-7.837-3.515-7.837-7.837s3.515-7.837,7.837-7.837
	S417.959,355.123,417.959,359.445z M480.653,362.057h-20.967c0.045-0.865,0.069-1.736,0.069-2.612
	c0-6.283-1.211-12.496-3.506-18.286h24.404V362.057z M496.327,325.486H258.09v-5.224h238.237V325.486z"/>
<g>
</g>
<g>
</g>
<g>
</g>
<g>
</g>
<g>
</g>
<g>
</g>
<g>
</g>
<g>
</g>
<g>
</g>
<g>
</g>
<g>
</g>
<g>
</g>
<g>
</g>
<g>
</g>
<g>
</g>
</svg>
