<svg id="Capa_1" enable-background="new 0 0 512 512" height="512" viewBox="0 0 512 512" width="512" xmlns="http://www.w3.org/2000/svg"><g><g><path d="m207.365 7.5c-17.828 0-33.525 9.084-42.742 22.87-1.139 1.704-1.139 3.951 0 5.656 9.217 13.786 24.914 22.87 42.742 22.87s33.525-9.084 42.742-22.87c1.14-1.705 1.14-3.951 0-5.656-9.217-13.786-24.914-22.87-42.742-22.87z" fill="#bce097"/><path d="m263.038 88.093h-22.077v-75.593c0-2.762 2.239-5 5-5h21.409c3.005 0 5.332 2.632 4.962 5.615z" fill="#d19a6e"/><path d="m275.37 7.5h-13c3.006 0 5.332 2.632 4.962 5.615l-9.294 74.978h13l9.294-74.978c.37-2.983-1.956-5.615-4.962-5.615z" fill="#b57f5f"/><path d="m344.074 232.729v-62.572c0-54.164-33.909-97.073-88.073-97.073-4.753 0-9.428-.662-14.001-.008-47.532 6.794-84.073 47.671-84.073 97.082v62.572c0 7.58-3.399 14.803-9.358 19.488-32.88 25.855-54.001 65.99-54.001 111.063 0 77.993 63.226 141.219 141.219 141.219h30.426c77.993 0 141.219-63.226 141.219-141.22 0-45.073-21.121-85.208-54.001-111.063-5.958-4.685-9.357-11.908-9.357-19.488z" fill="#bce097"/><path d="m338.706 283.66c-15.654-12.309-24.633-30.873-24.633-50.931v-62.571c0-32.022-26.052-58.073-58.074-58.073s-58.074 26.052-58.074 58.073v62.571c0 20.059-8.978 38.622-24.633 50.932-24.611 19.352-38.726 48.373-38.726 79.619 0 55.813 45.407 101.22 101.219 101.22h40.426c55.812 0 101.219-45.407 101.219-101.22.002-31.246-14.113-60.267-38.724-79.62z" fill="#ffe07d"/><path d="m363.431 252.217c-5.958-4.685-9.357-11.909-9.357-19.488v-62.571c0-54.164-43.909-98.073-98.073-98.073-4.754 0-9.427.345-14 .999 47.532 6.795 84.074 47.664 84.074 97.074v62.571c0 7.58 3.399 14.803 9.357 19.488 32.88 25.855 54.001 65.99 54.001 111.063 0 77.993-63.226 141.22-141.219 141.22h28c77.993 0 141.219-63.226 141.219-141.22-.001-45.073-21.122-85.207-54.002-111.063z" fill="#9cd169"/><path d="m310.873 363.28c0 35.828-19.045 63.873-54.873 63.873-4.808 0-9.494.477-14.004-.515-29.097-6.402-50.869-32.337-50.869-63.358s21.772-56.956 50.869-63.358c4.51-.992 9.196-.515 14.004-.515 35.828 0 54.873 28.045 54.873 63.873z" fill="#d19a6e"/><path d="m256 298.407c-4.809 0-9.489.539-14 1.532 29.096 6.403 50.873 32.322 50.873 63.341s-21.777 56.939-50.873 63.342c4.511.993 9.191 1.532 14 1.532 35.828 0 64.873-29.045 64.873-64.873 0-35.829-29.045-64.874-64.873-64.874z" fill="#b57f5f"/></g><g><path d="m368.066 246.322c-4.065-3.197-6.493-8.279-6.493-13.593v-62.571c0-49.554-34.321-91.236-80.439-102.542l6.642-53.579c.439-3.554-.668-7.131-3.04-9.814-2.371-2.684-5.785-4.223-9.366-4.223h-29.409c-4.848 0-9.051 2.78-11.123 6.825-8.421-4.437-17.872-6.825-27.473-6.825-19.699 0-38.008 9.795-48.977 26.202-2.84 4.249-2.84 9.741.001 13.992 10.969 16.407 29.278 26.202 48.977 26.202 9.101 0 18.034-2.134 26.096-6.12v6.738c-47.42 10.354-83.035 52.664-83.035 103.144v62.571c0 5.314-2.427 10.395-6.494 13.593-3.117 2.452-6.173 5.059-9.083 7.75-3.042 2.812-3.227 7.558-.415 10.599 2.813 3.042 7.558 3.228 10.599.415 2.618-2.421 5.368-4.766 8.171-6.971 7.767-6.108 12.222-15.359 12.222-25.384v-62.571c0-49.942 40.631-90.574 90.574-90.574s90.573 40.631 90.573 90.574v62.571c0 10.024 4.454 19.276 12.222 25.384 32.499 25.555 51.138 63.887 51.138 105.168 0 73.733-59.986 133.72-133.72 133.72h-40.426c-73.733 0-133.72-59.986-133.72-133.72 0-26.596 7.788-52.284 22.523-74.287 2.305-3.442 1.383-8.1-2.059-10.405-3.441-2.304-8.1-1.382-10.405 2.059-16.394 24.481-25.059 53.056-25.059 82.634 0 82.004 66.715 148.719 148.72 148.719h40.426c82.004 0 148.72-66.715 148.72-148.72-.001-45.914-20.728-88.544-56.868-116.961zm-160.701-194.926c-14.136 0-27.314-6.772-35.574-18.198 8.261-11.425 21.439-18.198 35.574-18.198 9.528 0 18.513 2.973 26.096 8.61v19.166c-7.519 5.57-16.687 8.62-26.096 8.62zm41.096 13.46v-49.856h24.081l-6.21 50.09c-3.4-.332-6.846-.506-10.332-.506-2.535 0-5.048.095-7.539.272z"/><path d="m256 420.653c-26.291 0-49.161-17.771-55.615-43.216-1.018-4.014-5.095-6.446-9.114-5.425-4.015 1.018-6.444 5.099-5.425 9.114 8.144 32.105 36.992 54.528 70.154 54.528 39.906 0 72.373-32.466 72.373-72.373s-32.467-72.373-72.373-72.373c-33.233 0-62.097 22.482-70.191 54.673-1.01 4.017 1.427 8.093 5.444 9.102 4.022 1.01 8.093-1.427 9.103-5.444 6.415-25.513 29.297-43.331 55.644-43.331 31.636 0 57.373 25.737 57.373 57.373 0 31.635-25.737 57.372-57.373 57.372z"/><path d="m314.073 185.733c4.143 0 7.5-3.358 7.5-7.5v-8.076c0-36.158-29.416-65.574-65.573-65.574-36.158 0-65.574 29.416-65.574 65.574v62.571c0 17.743-7.935 34.158-21.769 45.037-26.431 20.783-41.59 51.952-41.59 85.515 0 59.948 48.771 108.72 108.72 108.72h40.426c59.948 0 108.72-48.772 108.72-108.72 0-33.562-15.159-64.732-41.591-85.515-13.834-10.878-21.769-27.293-21.769-45.036v-21.81c0-4.142-3.357-7.5-7.5-7.5-4.142 0-7.5 3.358-7.5 7.5v21.81c0 22.373 10.022 43.086 27.497 56.827 22.791 17.921 35.862 44.793 35.862 73.724 0 51.677-42.043 93.72-93.72 93.72h-40.426c-51.677 0-93.72-42.043-93.72-93.72 0-28.932 13.071-55.803 35.862-73.724 17.475-13.74 27.497-34.454 27.497-56.828v-62.571c0-27.886 22.688-50.574 50.574-50.574s50.573 22.688 50.573 50.574v8.076c.001 4.143 3.359 7.5 7.501 7.5z"/><path d="m234.5 213.828c-4.142 0-7.5 3.358-7.5 7.5 0 4.142 3.358 7.5 7.5 7.5s7.5-3.358 7.5-7.5c0-4.142-3.358-7.5-7.5-7.5z"/><path d="m276.705 239.086c0-4.142-3.358-7.5-7.5-7.5s-7.5 3.358-7.5 7.5c0 4.142 3.358 7.5 7.5 7.5s7.5-3.358 7.5-7.5z"/><path d="m233.461 261.417c0 4.142 3.358 7.5 7.5 7.5s7.5-3.358 7.5-7.5c0-4.142-3.358-7.5-7.5-7.5s-7.5 3.358-7.5 7.5z"/></g></g></svg>