<?xml version="1.0" standalone="no"?>
<!DOCTYPE svg PUBLIC "-//W3C//DTD SVG 20010904//EN"
 "http://www.w3.org/TR/2001/REC-SVG-20010904/DTD/svg10.dtd">
<svg version="1.0" xmlns="http://www.w3.org/2000/svg"
 width="512.000000pt" height="512.000000pt" viewBox="0 0 512.000000 512.000000"
 preserveAspectRatio="xMidYMid meet">

<g transform="translate(0.000000,512.000000) scale(0.100000,-0.100000)"
fill="#000000" stroke="none">
<path d="M1765 5110 c-258 -47 -487 -237 -575 -478 l-22 -59 -78 -7 c-295 -24
-557 -203 -693 -473 -30 -57 -77 -212 -77 -249 0 -24 0 -24 -120 -24 -133 0
-168 -10 -188 -55 -9 -19 -12 -231 -12 -846 0 -890 -2 -861 55 -887 14 -7 70
-12 125 -12 l100 0 0 -360 0 -360 -100 0 c-112 0 -149 -12 -168 -55 -17 -37
-17 -1153 0 -1190 27 -59 -152 -55 2548 -55 2700 0 2521 -4 2548 55 17 37 17
1153 0 1190 -19 43 -56 55 -168 55 l-100 0 0 360 0 360 100 0 c112 0 149 12
168 55 17 37 17 1653 0 1690 -20 45 -55 55 -188 55 -120 0 -120 0 -120 24 0
37 -47 192 -77 249 -140 278 -407 455 -715 474 l-96 6 -22 59 c-83 227 -286
407 -531 469 -70 18 -268 18 -339 0 -81 -20 -166 -58 -240 -106 -69 -45 -184
-158 -215 -212 -11 -18 -22 -33 -25 -33 -3 0 -14 15 -25 33 -32 54 -146 168
-215 212 -128 83 -225 114 -380 120 -58 2 -128 0 -155 -5z m237 -205 c165 -35
306 -145 377 -296 22 -46 42 -98 46 -115 6 -31 6 -31 -60 -49 -151 -41 -308
-146 -399 -268 l-50 -66 -23 41 c-43 75 -126 171 -203 231 -74 60 -228 141
-289 153 -17 4 -31 8 -31 10 0 12 40 88 72 135 93 141 270 236 443 238 28 0
80 -6 117 -14z m1322 -5 c108 -27 170 -63 252 -145 64 -65 134 -174 134 -211
0 -7 -17 -18 -37 -25 -156 -50 -324 -183 -423 -335 l-49 -75 -29 43 c-101 147
-284 267 -455 300 -37 7 -67 16 -67 19 0 31 48 149 81 198 78 116 188 196 321
231 95 25 176 25 272 0z m-2037 -545 c124 -23 232 -82 328 -179 98 -99 153
-197 180 -323 l7 -33 -642 0 -642 0 7 33 c27 126 82 224 180 323 158 159 359
221 582 179z m2801 -1 c249 -50 453 -252 507 -501 l7 -33 -642 0 -642 0 7 33
c28 126 82 224 180 323 65 65 98 90 166 122 141 68 271 86 417 56z m-1416 -99
c144 -30 295 -139 362 -260 23 -42 66 -152 66 -170 0 -3 -243 -5 -540 -5 -297
0 -540 2 -540 5 0 18 43 128 66 170 41 74 147 174 227 213 119 59 235 74 359
47z m2248 -1335 l0 -700 -2360 0 -2360 0 0 700 0 700 2360 0 2360 0 0 -700z
m-3520 -1260 l0 -360 -460 0 -460 0 0 360 0 360 460 0 460 0 0 -360z m2120 0
l0 -360 -960 0 -960 0 0 360 0 360 960 0 960 0 0 -360z m1120 0 l0 -360 -460
0 -460 0 0 360 0 360 460 0 460 0 0 -360z m280 -1010 l0 -450 -2360 0 -2360 0
0 450 0 450 2360 0 2360 0 0 -450z"/>
<path d="M1511 3406 c-50 -28 -50 -32 -51 -483 0 -307 3 -429 12 -448 26 -57
-21 -55 1088 -55 1109 0 1062 -2 1088 55 17 37 17 853 0 890 -26 57 21 55
-1090 55 -830 -1 -1028 -3 -1047 -14z m1949 -486 l0 -300 -900 0 -900 0 0 300
0 300 900 0 900 0 0 -300z"/>
<path d="M1911 3006 c-87 -48 -50 -186 49 -186 51 0 100 49 100 99 0 75 -83
124 -149 87z"/>
<path d="M2311 3006 c-67 -37 -65 -143 4 -174 19 -9 141 -12 445 -12 450 0
460 1 486 51 27 52 8 115 -41 137 -39 18 -861 16 -894 -2z"/>
<path d="M651 3006 c-87 -48 -50 -186 49 -186 51 0 100 49 100 99 0 75 -83
124 -149 87z"/>
<path d="M4371 3006 c-87 -48 -50 -186 49 -186 51 0 100 49 100 99 0 75 -83
124 -149 87z"/>
<path d="M651 736 c-87 -48 -50 -186 49 -186 51 0 100 49 100 99 0 75 -83 124
-149 87z"/>
<path d="M4371 736 c-87 -48 -50 -186 49 -186 51 0 100 49 100 99 0 75 -83
124 -149 87z"/>
</g>
</svg>
