<svg height="511pt" viewBox="-38 1 511 511.99964" width="511pt" xmlns="http://www.w3.org/2000/svg"><path d="m247.960938 119.46875c-4.714844 0-8.535157-3.820312-8.535157-8.53125v-51.203125c0-4.710937 3.820313-8.53125 8.535157-8.53125 4.710937 0 8.53125 3.820313 8.53125 8.53125v51.203125c0 4.710938-3.820313 8.53125-8.53125 8.53125zm0 0" fill="#d18d28"/><path d="m333.292969 256h-34.132813l17.066406-47.460938-17.066406-20.804687-42.667968 25.601563-51.199219-21.863282-25.601563 17.058594v47.46875h-34.132812v-47.460938l-17.066406-29.335937 8.535156-34.132813-42.667969-17.066406 34.132813-51.203125h51.199218l17.066406 25.601563h136.535157l25.597656 42.667968v51.199219zm0 0" fill="#dbdbdb"/><path d="m247.960938 25.601562-23.136719-11.5625c-6.566407-3.28125-14.5-1.996093-19.691407 3.191407l-16.90625 16.90625 17.066407 8.53125c8.53125 25.601562 25.597656 25.601562 34.132812 25.601562h17.066407c18.851562 0 34.132812-15.28125 34.132812-34.132812v-25.601563zm0 0" fill="#ea9d2d"/><path d="m196.757812 102.402344v15.054687c0 6.464844-3.652343 12.375-9.4375 15.265625-4.800781 2.398438-10.453124 2.398438-15.257812 0-5.78125-2.890625-9.4375-8.800781-9.4375-15.265625v-15.054687zm0 0" fill="#c3c3c3"/><path d="m393.023438 503.464844h-42.664063l17.066406-59.730469-42.667969-34.132813-76.796874 25.597657-68.269532-17.066407-25.597656 34.132813v51.199219h-34.132812v-51.199219l-42.667969-51.199219-17.066407-85.332031h-42.664062l-8.535156-34.132813 42.667968-51.199218h51.199219l17.066407 25.597656h264.53125l42.664062 68.269531-8.53125 119.464844zm0 0" fill="#c17450"/><path d="m393.023438 349.261719c-13.585938.039062-26.621094-5.363281-36.195313-15l-3.96875-3.953125c-3.335937-3.332032-3.339844-8.738282-.007813-12.074219 3.332032-3.335937 8.738282-3.339844 12.074219-.007813l3.96875 3.96875c13.5 12.898438 34.761719 12.898438 48.261719 0l3.96875-3.96875c3.335938-3.332031 8.742188-3.328124 12.074219.007813s3.328125 8.742187-.007813 12.074219l-3.96875 3.960937c-9.578125 9.632813-22.613281 15.03125-36.199218 14.992188zm0 0" fill="#8f563b"/><path d="m328.0625 154.769531c-9.0625.019531-17.761719-3.570312-24.175781-9.972656l-2.226563-2.226563c-3.273437-3.390624-3.179687-8.792968.207032-12.066406 3.308593-3.195312 8.550781-3.195312 11.859374 0l2.226563 2.226563c5.757813 5.730469 14.753906 6.621093 21.527344 2.132812l8.140625-5.429687c3.921875-2.613282 9.222656-1.554688 11.835937 2.367187 2.617188 3.917969 1.558594 9.21875-2.363281 11.832031l-8.140625 5.429688c-5.59375 3.726562-12.167969 5.714844-18.890625 5.707031zm0 0" fill="#c3c3c3"/><path d="m128.492188 256v17.066406c0 9.425782-7.640626 17.066406-17.066407 17.066406h-8.53125c-9.425781 0-17.066406-7.640624-17.066406-17.066406v-17.066406zm0 0" fill="#8f563b"/><path d="m435.554688 323.566406c-.050782-.679687-.183594-1.351562-.390626-2.003906-.117187-.335938-.257812-.664062-.421874-.980469-.097657-.292969-.214844-.578125-.347657-.855469l-42.667969-68.265624c-1.5625-2.488282-4.296874-3.996094-7.234374-3.992188h-38.265626l20.480469-47.835938c.46875-1.0625.710938-2.207031.71875-3.363281v-51.199219c0-1.550781-.421875-3.070312-1.222656-4.394531l-25.597656-42.667969c-1.542969-2.566406-4.320313-4.136718-7.3125-4.140624h-76.800781v-17.066407c23.550781-.027343 42.636718-19.113281 42.667968-42.664062v-25.601563c0-4.710937-3.820312-8.535156-8.53125-8.535156-1.085937 0-2.160156.207031-3.167968.609375l-39.109376 15.648437-19.710937-9.855468c-9.855469-4.925782-21.761719-2.996094-29.550781 4.796875l-16.894532 16.90625c-3.328124 3.335937-3.320312 8.738281.015626 12.066406.644531.640625 1.386718 1.175781 2.203124 1.585937l14.011719 7.003907c5.4375 17.777343 22.460938 29.421875 41 28.042969v17.066406h-38.101562l-14.507813-21.804688c-1.585937-2.378906-4.261718-3.804687-7.125-3.796875h-51.199218c-2.851563 0-5.515626 1.425781-7.097657 3.796875l-34.132812 51.199219c-2.617188 3.921875-1.5625 9.21875 2.359375 11.835937.492187.332032 1.019531.609376 1.574218.828126l35.746094 14.257812-6.726562 26.90625c-.539063 2.160156-.214844 4.445312.90625 6.367188l15.90625 27.375v36.632812h-12.503906l-14.503907-21.804688c-1.589843-2.378906-4.265625-3.804687-7.125-3.796874h-51.199219c-2.535156 0-4.941406 1.125-6.5625 3.074218l-42.667968 51.199219c-1.738282 2.09375-2.371094 4.894531-1.707032 7.535156l8.535157 34.132813c.949219 3.792968 4.355469 6.457031 8.269531 6.460937h35.675781l15.691407 78.503907c.277343 1.394531.894531 2.695312 1.800781 3.789062l40.695312 48.792969v48.109375c0 4.714844 3.820313 8.535156 8.535157 8.535156h34.132812c4.710938 0 8.53125-3.820312 8.53125-8.535156v-48.355469l20.480469-27.308594 62.78125 15.695313c1.570312.390625 3.222656.328125 4.761719-.179688l72.402343-24.152344 34.605469 27.683594-15.507812 54.273438c-1.292969 4.53125 1.328124 9.253906 5.859374 10.550781.765626.21875 1.554688.328125 2.351563.328125h42.667969c3.410156 0 6.496094-2.035156 7.839844-5.171875l25.601562-59.734375c.382812-.871094.617188-1.804688.691406-2.753906l8.53125-119.46875c0-.109375 0-.210938 0-.320313-.027344-.332031-.074218-.660156-.136718-.984375zm-222.171876-283.59375c-.710937-2.148437-2.246093-3.925781-4.265624-4.941406l-6.476563-3.234375 8.53125-8.53125c2.597656-2.601563 6.566406-3.25 9.855469-1.605469l23.117187 11.621094c2.179688 1.089844 4.71875 1.195312 6.980469.292969l30.96875-12.433594v12.996094c0 14.136719-11.464844 25.601562-25.601562 25.601562h-17.066407c-8.207031-.003906-19.445312-.003906-26.042969-19.765625zm-60.449218 164.273438-15.359375-26.339844 7.679687-30.765625c1.039063-4.144531-1.152344-8.417969-5.121094-10l-32.894531-13.15625 25.820313-38.648437h42.070312l5.691406 8.53125h-18.195312c-4.710938 0-8.53125 3.824218-8.53125 8.535156v15.050781c0 14.140625 11.460938 25.601563 25.597656 25.601563 14.140625 0 25.601563-11.460938 25.601563-25.601563v-6.519531h123.167969l12.800781 21.386718-3.816407 2.558594c-6.773437 4.488282-15.765624 3.597656-21.527343-2.132812l-2.226563-2.226563c-3.390625-3.273437-8.792968-3.179687-12.066406.210938-3.195312 3.304687-3.195312 8.546875 0 11.855469l2.226562 2.226562c11.519532 11.476562 29.519532 13.257812 43.066407 4.265625l3.132812-2.089844.273438.460938v47.113281l-22.65625 52.90625h-16.375l12.960937-36.046875c1.015625-2.824219.472656-5.980469-1.433594-8.300781l-17.066406-20.796875c-2.683594-3.273438-7.363281-4.082031-10.992187-1.902344l-38.925781 23.355469-47.191407-20.15625c-2.648437-1.132813-5.691406-.855469-8.089843.742187l-25.597657 17.066407c-2.375 1.585937-3.800781 4.253906-3.796875 7.109374v38.925782h-17.066406v-38.925782c0-1.507812-.402344-2.988281-1.160156-4.292968zm35.292968-93.308594v6.519531c0 4.710938-3.820312 8.53125-8.535156 8.53125-4.710937 0-8.53125-3.820312-8.53125-8.53125v-6.519531zm0 136.53125v-34.363281l17.917969-11.945313 46.933594 20.050782c2.515625 1.089843 5.40625.890624 7.75-.527344l36.402344-21.855469 9.328125 11.359375-13.371094 37.28125zm-68.265624 17.066406v8.53125c0 4.714844-3.820313 8.535156-8.535157 8.535156h-8.53125c-4.714843 0-8.535156-3.820312-8.535156-8.535156v-8.53125zm267.441406 230.398438h-25.726563l13.957031-48.851563c.949219-3.3125-.1875-6.863281-2.875-9.011719l-42.664062-34.132812c-2.261719-1.808594-5.285156-2.351562-8.03125-1.433594l-74.445312 24.8125-65.859376-16.460937c-3.328124-.828125-6.832031.414062-8.890624 3.160156l-25.601563 34.132813c-1.105469 1.476562-1.703125 3.273437-1.703125 5.117187v42.667969h-17.070312v-42.667969c.003906-1.992187-.695313-3.925781-1.96875-5.460937l-41.285157-49.492188-16.648437-83.285156c-.808594-3.972656-4.304688-6.828125-8.363282-6.828125h-36l-5.863281-23.464844 37.332031-44.800781h42.667969l5.691407 8.535156h-18.226563c-4.710937 0-8.535156 3.820312-8.535156 8.53125v17.066406c0 14.140625 11.464843 25.601563 25.601562 25.601563h8.53125c14.140625 0 25.601563-11.460938 25.601563-25.601563v-8.53125h242.730468l36.496094 58.390625c-13.566406 12.136719-34.179687 11.820313-47.359375-.734375l-3.96875-3.964844c-3.335937-3.332031-8.742187-3.328124-12.074219.007813-3.332031 3.335937-3.328124 8.742187.007813 12.074219l3.96875 3.949218c15.964844 15.980469 40.519531 19.605469 60.421875 8.925782l-7.03125 98.507812zm0 0"/></svg>